<?xml version="1.0" encoding="utf-8"?>
<!-- Generator: Adobe Illustrator 19.0.0, SVG Export Plug-In . SVG Version: 6.00 Build 0)  -->
<svg version="1.1" id="Layer_1" xmlns="http://www.w3.org/2000/svg" xmlns:xlink="http://www.w3.org/1999/xlink" x="0px" y="0px"
	 viewBox="-248 372.9 113.9 33" style="enable-background:new -248 372.9 113.9 33;" xml:space="preserve">
<style type="text/css">
	.st0{fill:#FFFFFF;}
</style>
<title>Ativo 1</title>
<path class="st0" d="M-246.3,386.5v-11c0-1-0.8-1.3-1.7-1.4v-1h6.7v1c-0.8,0.1-1.5,0.4-1.5,1.3v10.9c0,3.7,2.3,5.1,5.3,5.1
	c5.6,0,5.6-4.4,5.6-8.3v-4.7c0-3.4-0.3-4.1-2-4.3v-1h5.6v0.9c-1,0.1-1.8,0.6-1.8,2.8v8.1c0,4.6-2.2,8.1-8,8.1
	C-243.2,393.1-246.3,391.1-246.3,386.5z"/>
<path class="st0" d="M-217.2,390.3v-14.5c0-1.2-0.7-1.6-1.9-1.7v-1.1c2.2,0,4.4,0.1,6.7,0.1c3.8,0,6.1,0,8.4-0.1l0.1,3.2h-1.1
	c-0.6-1.6-1.6-1.9-4.6-1.9h-4.3v7.5h3.8c1.6,0,2.5,0,2.8-1.3h0.8v3.9h-0.8c-0.3-1.1-1-1.2-2.8-1.2h-3.8v6.4c0,2,0.8,2.5,2.4,2.5v0.9
	h-7.8v-1C-217.9,391.9-217.2,391.5-217.2,390.3z"/>
<path class="st0" d="M-135.6,387.1v5.1c-2.4,0.7-5,1.1-7.5,1.2c-6.4,0-10.9-4.5-10.9-10.1c0-6.4,4.9-10.4,11.2-10.4
	c1.3,0,2.5,0.2,3.8,0.4c0.5,0.1,3.1,0.6,3.7,0.7l0.3,3.7h-1.3c-0.9-1.8-2.2-3.4-5.6-3.4c-4.4,0-8,2.6-8,9c0,3.7,2.1,8.9,8.4,8.9
	c1,0,1.9-0.2,2.8-0.6c0-0.4,0.1-2.5,0.1-3.1c0-1.8-0.2-2.5-1.6-2.7v-1h6.2v0.9C-135.3,385.7-135.6,386-135.6,387.1z"/>
<path class="st0" d="M-162.6,387.1c-0.7,0.7-3,2.7-3.8,2.7c-0.3,0-0.7-0.2-0.7-0.5c0.1-0.7,0.3-1.4,0.6-2l3.5-10.1
	c0.3-0.7,0.4-1.4,0.4-2.1c0.1-0.9-0.5-1.6-1.3-1.8c-0.1,0-0.3,0-0.4,0c-4.1,0-10.6,7.3-12.9,10.2h-0.1l2.1-6.4
	c0.3-0.7,0.4-1.5,0.5-2.3c0-0.8-0.6-1.4-1.9-1.4c-3.8,0-10.3,7.1-12.3,10.1h-0.1l2.2-6.6c0.3-0.6,0.4-1.3,0.5-2
	c0.1-0.7-0.4-1.4-1.2-1.5c-0.1,0-0.2,0-0.3,0c-2.9,0-5.9,3.4-7.5,5.5c0,0-0.4,0.5-0.1,0.8c0.2,0.2,0.5,0.2,0.7,0l1.2-1.3
	c0.6-0.8,1.5-1.3,2.5-1.5c0.5,0,0.7,0.4,0.7,0.9c0,0.4-0.1,0.7-0.2,1.1l-4.5,13.6c-0.1,0.5,0.8,0.8,1.3,0.8c1.1,0,1.6-0.3,1.7-0.7
	l0.8-2.3c1.2-3.3,3-6.3,5.4-8.8c1.4-1.5,4-4.5,6.3-4.5c0.6,0,0.8,0.5,0.8,1.1c-0.1,1.1-0.4,2.2-0.7,3.2l-3.8,11.3
	c-0.1,0.4,0.3,0.9,1.5,0.9c1.2,0,1.4-0.4,1.5-0.8l0.7-1.8c1-2.9,2.5-5.5,4.5-7.9c1.4-1.7,5.3-6.1,7.6-6.1c0.6,0,1,0.4,1,1
	c-0.1,0.6-0.2,1.2-0.4,1.8l-3.5,10c-0.3,0.6-0.5,1.3-0.5,2c0,1.1,0.8,1.5,1.6,1.5c2.4,0,4.4-1.9,6.1-3.8l1.3-1.4c0,0,0.4-0.4,0-0.7
	C-162.2,386.9-162.5,386.9-162.6,387.1z"/>
<rect x="-194.8" y="398.7" class="st0" width="29.9" height="7.2"/>
</svg>
